<svg width="20" height="16" viewBox="0 0 20 16" fill="none" xmlns="http://www.w3.org/2000/svg">
<path d="M16.6088 1.94682C18.7546 5.12128 19.8143 8.70199 19.4182 12.8242C19.4165 12.8416 19.4075 12.8577 19.3933 12.8682C17.7683 14.0687 16.1939 14.7974 14.6416 15.2806C14.6295 15.2843 14.6166 15.284 14.6046 15.28C14.5927 15.2759 14.5822 15.2682 14.5749 15.2579C14.2162 14.7558 13.8904 14.2265 13.6049 13.6706C13.5885 13.6379 13.6035 13.5985 13.6372 13.5856C14.1547 13.3894 14.6468 13.1542 15.1202 12.8758C15.1575 12.8538 15.1598 12.8001 15.1254 12.7743C15.0249 12.6992 14.9254 12.6204 14.8302 12.5415C14.8124 12.5269 14.7884 12.5241 14.7682 12.5339C11.6952 13.9617 8.32887 13.9617 5.21952 12.5339C5.19933 12.5248 5.17535 12.5279 5.15801 12.5422C5.06301 12.6211 4.96326 12.6992 4.86375 12.7743C4.82931 12.8001 4.83216 12.8538 4.86968 12.8758C5.34302 13.149 5.83512 13.3894 6.35192 13.5865C6.38541 13.5994 6.40132 13.6379 6.38469 13.6706C6.10539 14.2272 5.77955 14.7565 5.41427 15.2586C5.39836 15.2789 5.37223 15.2882 5.34753 15.2806C3.8026 14.7974 2.22821 14.0687 0.603242 12.8682C0.589704 12.8577 0.579967 12.8409 0.578542 12.8235C0.247467 9.25783 0.922204 5.64749 3.38531 1.9461C3.39125 1.9363 3.40027 1.92865 3.41072 1.92411C4.62268 1.36445 5.9211 0.952705 7.27817 0.71756C7.30287 0.713737 7.32757 0.725207 7.34039 0.747192C7.50807 1.0459 7.69973 1.42897 7.8294 1.74202C9.25986 1.52217 10.7127 1.52217 12.173 1.74202C12.3027 1.43566 12.4877 1.0459 12.6547 0.747192C12.6606 0.736286 12.6698 0.727548 12.681 0.722226C12.6922 0.716905 12.7048 0.715272 12.7169 0.71756C14.0747 0.953422 15.3731 1.36517 16.5841 1.92411C16.5948 1.92865 16.6036 1.9363 16.6088 1.94682ZM8.55663 8.72636C8.57159 7.67227 7.80779 6.80003 6.84901 6.80003C5.89806 6.80003 5.14162 7.66462 5.14162 8.72636C5.14162 9.78786 5.91302 10.6524 6.84901 10.6524C7.80019 10.6524 8.55663 9.78786 8.55663 8.72636ZM14.8698 8.72636C14.8848 7.67227 14.121 6.80003 13.1625 6.80003C12.2113 6.80003 11.4548 7.66462 11.4548 8.72636C11.4548 9.78786 12.2262 10.6524 13.1625 10.6524C14.121 10.6524 14.8698 9.78786 14.8698 8.72636Z" fill="white"/>
</svg>
