<svg width="18" height="14" viewBox="0 0 18 14" fill="none" xmlns="http://www.w3.org/2000/svg">
<path d="M17.9199 1.68179C17.3377 1.91822 16.7256 2.08285 16.0987 2.17163C16.3918 2.12423 16.823 1.62648 16.9947 1.42501C17.2554 1.12112 17.4542 0.774195 17.5808 0.401871C17.5808 0.374218 17.6101 0.334714 17.5808 0.314963C17.566 0.307356 17.5495 0.30337 17.5327 0.30337C17.5158 0.30337 17.4993 0.307356 17.4845 0.314963C16.8038 0.662761 16.0794 0.92821 15.3283 1.10503C15.3021 1.11258 15.2743 1.11326 15.2477 1.10699C15.2212 1.10073 15.1969 1.08776 15.1776 1.06948C15.1191 1.0038 15.0562 0.941778 14.9892 0.883814C14.6829 0.624848 14.3353 0.412895 13.9592 0.255707C13.4516 0.0592076 12.9033 -0.0258921 12.3557 0.0068349C11.8244 0.0384962 11.3056 0.172962 10.8317 0.401871C10.365 0.643207 9.95489 0.97107 9.62592 1.36576C9.27987 1.77199 9.03004 2.24344 8.89323 2.74838C8.78041 3.22869 8.76762 3.7251 8.85555 4.21001C8.85555 4.29297 8.85555 4.30482 8.78019 4.29297C5.79501 3.87818 3.34574 2.87874 1.34445 0.7337C1.25653 0.638892 1.21047 0.638892 1.1393 0.7337C0.268446 1.98201 0.691312 3.95719 1.77988 4.93293C1.92641 5.06329 2.07714 5.1897 2.23624 5.30821C1.73714 5.27478 1.25023 5.14717 0.804355 4.93293C0.720619 4.88157 0.674564 4.90923 0.670378 5.00403C0.658509 5.13548 0.658509 5.26763 0.670378 5.39907C0.757737 6.02899 1.02084 6.62572 1.43279 7.12824C1.84474 7.63075 2.39075 8.02102 3.01498 8.25913C3.16715 8.32063 3.32571 8.36697 3.48809 8.39739C3.02604 8.48322 2.55216 8.49657 2.08551 8.4369C1.98503 8.41714 1.94735 8.4685 1.98503 8.55936C2.60049 10.1395 3.93607 10.6214 4.91578 10.8901C5.04976 10.9098 5.18373 10.9098 5.33446 10.9414C5.33446 10.9414 5.33446 10.9414 5.30934 10.9651C5.02045 11.4629 3.85234 11.7986 3.31643 11.9725C2.33826 12.304 1.29534 12.4307 0.260072 12.3438C0.0967876 12.3201 0.0591065 12.324 0.0172386 12.3438C-0.0246292 12.3635 0.0172386 12.407 0.0632933 12.4465C0.272633 12.5769 0.481972 12.6914 0.699685 12.802C1.34782 13.1356 2.03303 13.4006 2.74284 13.5921C6.41884 14.5481 10.5554 13.8449 13.3145 11.2574C15.4832 9.22697 16.2452 6.42616 16.2452 3.62141C16.2452 3.51475 16.3834 3.45155 16.4629 3.39624C17.0116 2.99287 17.4954 2.51649 17.899 1.98201C17.9689 1.90234 18.0048 1.8009 17.9995 1.69759C17.9995 1.63833 17.9995 1.65018 17.9199 1.68179Z" fill="white"/>
</svg>
